<?xml version="1.0" standalone="no"?>
<!DOCTYPE svg PUBLIC "-//W3C//DTD SVG 20010904//EN"
 "http://www.w3.org/TR/2001/REC-SVG-20010904/DTD/svg10.dtd">
<svg version="1.0" xmlns="http://www.w3.org/2000/svg"
 width="80.000000pt" height="80.000000pt" viewBox="0 0 80.000000 80.000000"
 preserveAspectRatio="xMidYMid meet">
<metadata>
Created by potrace 1.11, written by Peter Selinger 2001-2013
</metadata>
<g transform="translate(0.000000,80.000000) scale(0.100000,-0.100000)"
fill="#000000" stroke="none">
<path d="M242 773 c2 -15 9 -29 16 -29 6 -1 18 -2 26 -3 11 -1 14 -16 11 -65
l-3 -64 -126 -123 -126 -124 180 -183 180 -182 127 124 c71 68 152 145 181
172 28 26 52 52 52 58 0 6 -54 67 -119 134 l-118 124 2 51 c2 29 3 58 4 65 1
6 13 12 27 12 22 0 25 4 22 27 -3 26 -6 28 -53 28 l-50 0 -2 -105 -3 -105 111
-114 110 -114 -48 -45 c-26 -24 -92 -87 -145 -140 l-96 -95 -141 144 -141 144
115 112 114 113 2 102 2 103 -57 3 -57 3 3 -28z"/>
<path d="M396 562 c-2 -4 -1 -14 4 -22 7 -11 9 -9 7 8 -1 24 -3 26 -11 14z"/>
<path d="M381 521 c-1 -19 -4 -21 -15 -12 -10 8 -16 8 -25 -2 -6 -8 -8 -17 -4
-20 3 -4 1 -7 -6 -7 -7 0 -9 -4 -6 -10 3 -5 1 -10 -4 -10 -6 0 -11 -5 -11 -11
0 -5 3 -8 8 -5 4 2 8 -10 9 -27 1 -18 4 -43 8 -57 5 -17 4 -21 -3 -12 -7 11
-10 10 -16 -3 -8 -23 -7 -33 2 -18 5 8 13 9 22 3 13 -9 13 -10 0 -10 -13 0
-13 -1 0 -10 12 -7 12 -14 4 -27 -12 -20 -8 -43 8 -43 6 0 5 6 -2 15 -11 13
-10 14 4 9 10 -4 15 -13 12 -20 -4 -10 3 -13 25 -10 35 4 56 20 40 30 -6 4
-11 5 -11 1 0 -3 -9 -1 -21 5 -11 7 -18 14 -15 17 3 4 1 12 -5 19 -11 14 -4
52 7 41 10 -10 42 26 49 54 4 16 2 30 -4 33 -15 10 -14 27 1 24 7 -2 14 7 16
18 4 25 -26 41 -34 19 -4 -8 -10 -13 -15 -10 -4 3 -13 -5 -19 -17 -10 -21 -10
-21 3 -6 8 10 17 15 20 11 4 -3 9 2 13 11 7 18 24 12 24 -10 0 -8 -6 -13 -12
-11 -8 1 -13 -8 -13 -21 0 -12 -5 -26 -11 -30 -6 -4 -16 -16 -21 -27 -10 -18
-11 -18 -12 5 -1 52 -5 80 -11 80 -3 0 -6 9 -7 21 -2 17 1 18 12 9 12 -10 16
-9 21 4 3 8 4 21 1 28 -3 7 -6 2 -6 -11z"/>
<path d="M435 520 c27 -12 43 -12 25 0 -8 5 -22 9 -30 9 -10 0 -8 -3 5 -9z"/>
<path d="M475 479 c-4 -6 -5 -12 -2 -15 2 -3 7 2 10 11 7 17 1 20 -8 4z"/>
<path d="M510 463 c0 -7 5 -15 10 -18 6 -4 8 -11 5 -16 -9 -13 -26 -11 -22 2
1 6 -5 14 -13 16 -12 4 -12 3 -2 -5 8 -5 13 -13 12 -18 -3 -14 16 -16 28 -2 7
9 6 18 -4 32 -8 11 -14 15 -14 9z"/>
<path d="M270 440 c0 -5 5 -10 11 -10 5 0 7 5 4 10 -3 6 -8 10 -11 10 -2 0 -4
-4 -4 -10z"/>
<path d="M385 439 c-4 -6 -5 -12 -2 -15 2 -3 7 2 10 11 7 17 1 20 -8 4z"/>
<path d="M445 440 c-3 -5 1 -10 9 -10 9 0 16 5 16 10 0 6 -4 10 -9 10 -6 0
-13 -4 -16 -10z"/>
<path d="M296 422 c-9 -15 0 -46 15 -50 8 -2 10 0 4 5 -15 12 -19 47 -4 37 8
-4 10 -3 5 4 -8 14 -13 15 -20 4z"/>
<path d="M260 405 c0 -8 4 -15 10 -15 5 0 7 7 4 15 -4 8 -8 15 -10 15 -2 0 -4
-7 -4 -15z"/>
<path d="M472 410 c2 -8 -3 -14 -10 -15 -17 0 -31 -25 -25 -42 4 -9 0 -11 -13
-7 -17 5 -17 4 -4 -8 21 -18 23 -37 5 -44 -8 -4 -15 -10 -15 -16 0 -5 4 -7 9
-4 14 9 32 -20 25 -40 -4 -14 -3 -15 4 -5 7 9 12 10 16 2 4 -6 15 -11 24 -10
15 0 15 1 -1 8 -10 4 -17 10 -15 13 2 4 -6 14 -17 23 -19 14 -18 15 10 3 17
-6 36 -16 43 -21 9 -7 11 -6 7 6 -7 17 32 50 48 40 6 -3 7 -1 3 6 -4 6 -12 9
-17 5 -6 -3 -8 9 -6 30 3 28 0 37 -15 42 -10 3 -28 15 -39 27 -13 14 -19 16
-17 7z m33 -71 c5 -14 2 -25 -6 -30 -24 -15 -34 -10 -13 6 12 9 13 13 4 10
-11 -4 -16 1 -17 15 -2 27 24 26 32 -1z"/>
<path d="M520 400 c-8 -5 -10 -10 -5 -10 6 0 17 5 25 10 8 5 11 10 5 10 -5 0
-17 -5 -25 -10z"/>
<path d="M236 387 c3 -10 9 -15 12 -12 3 3 0 11 -7 18 -10 9 -11 8 -5 -6z"/>
<path d="M570 385 c0 -2 10 -10 23 -16 20 -11 21 -11 8 4 -13 16 -31 23 -31
12z"/>
<path d="M221 361 c-1 -21 -3 -22 -18 -10 -16 13 -17 12 -4 -4 17 -21 35 -8
28 19 -4 15 -5 14 -6 -5z"/>
<path d="M275 360 c27 -12 43 -12 25 0 -8 5 -22 9 -30 9 -10 0 -8 -3 5 -9z"/>
<path d="M567 359 c7 -7 15 -10 18 -7 3 3 -2 9 -12 12 -14 6 -15 5 -6 -5z"/>
<path d="M240 356 c0 -2 7 -9 15 -16 9 -7 15 -8 15 -2 0 5 -7 12 -15 16 -8 3
-15 4 -15 2z"/>
<path d="M560 330 c6 -11 13 -20 16 -20 2 0 0 9 -6 20 -6 11 -13 20 -16 20 -2
0 0 -9 6 -20z"/>
<path d="M281 324 c0 -11 3 -14 6 -6 3 7 2 16 -1 19 -3 4 -6 -2 -5 -13z"/>
<path d="M225 320 c-3 -6 1 -7 9 -4 18 7 21 14 7 14 -6 0 -13 -4 -16 -10z"/>
<path d="M391 313 c6 -7 17 -13 23 -12 7 0 6 2 -2 6 -6 2 -10 8 -8 12 3 4 -1
8 -9 8 -11 0 -12 -4 -4 -14z"/>
<path d="M260 311 c0 -7 -5 -9 -12 -5 -7 5 -8 3 -3 -5 5 -9 10 -10 18 -2 6 6
8 14 4 18 -4 3 -7 1 -7 -6z"/>
<path d="M296 303 c-10 -10 -7 -33 4 -33 5 0 6 8 3 18 -6 15 -5 15 10 3 9 -7
17 -9 17 -3 0 12 -26 23 -34 15z"/>
<path d="M300 256 c0 -2 7 -7 16 -10 8 -3 12 -2 9 4 -6 10 -25 14 -25 6z"/>
<path d="M333 215 c0 -10 4 -12 12 -5 7 5 16 6 20 2 5 -4 5 -1 1 6 -10 17 -33
15 -33 -3z"/>
<path d="M415 220 c3 -5 8 -10 11 -10 2 0 4 5 4 10 0 6 -5 10 -11 10 -5 0 -7
-4 -4 -10z"/>
<path d="M381 201 c-1 -21 -3 -22 -18 -10 -16 13 -17 12 -4 -4 17 -21 35 -8
28 19 -4 15 -5 14 -6 -5z"/>
<path d="M430 190 c8 -5 20 -10 25 -10 6 0 3 5 -5 10 -8 5 -19 10 -25 10 -5 0
-3 -5 5 -10z"/>
<path d="M396 175 c-9 -26 -7 -32 5 -12 6 10 9 21 6 23 -2 3 -7 -2 -11 -11z"/>
<path d="M416 154 c-5 -14 -4 -15 9 -4 17 14 19 20 6 20 -5 0 -12 -7 -15 -16z"/>
</g>
</svg>
